<svg xmlns="http://www.w3.org/2000/svg" viewBox="0 0 100 100">
  <!-- Background circle -->
  <circle cx="50" cy="50" r="48" fill="#ef4444" stroke="#dc2626" stroke-width="2"/>
  
  <!-- Juice glass -->
  <path d="M 35 25 L 35 60 Q 35 65 40 65 L 60 65 Q 65 65 65 60 L 65 25" 
        fill="none" stroke="#ffffff" stroke-width="3" stroke-linecap="round"/>
  
  <!-- Juice liquid -->
  <path d="M 38 30 L 38 58 Q 38 62 42 62 L 58 62 Q 62 62 62 58 L 62 30" 
        fill="#ffd700" opacity="0.9"/>
  
  <!-- Straw -->
  <line x1="50" y1="20" x2="50" y2="45" 
        stroke="#ffffff" stroke-width="2.5" stroke-linecap="round"/>
  
  <!-- Ice cubes / bubbles -->
  <circle cx="45" cy="40" r="2" fill="#ffffff" opacity="0.7"/>
  <circle cx="55" cy="45" r="1.5" fill="#ffffff" opacity="0.6"/>
  <circle cx="48" cy="50" r="1.5" fill="#ffffff" opacity="0.6"/>
  
  <!-- Decorative leaf -->
  <path d="M 70 35 Q 75 30 75 35 Q 75 40 70 40 Q 72 37 70 35" 
        fill="#16a34a" stroke="#ffffff" stroke-width="1"/>
</svg>

